<svg width="64" height="64" viewBox="0 0 64 64" fill="none" xmlns="http://www.w3.org/2000/svg">
  <circle cx="32" cy="32" r="32" fill="#4CAF50"/>
  <path d="M32 8C22.0589 8 14 16.0589 14 26C14 35.9411 22.0589 44 32 44C41.9411 44 50 35.9411 50 26C50 16.0589 41.9411 8 32 8ZM32 40C24.268 40 18 33.732 18 26C18 18.268 24.268 12 32 12C39.732 12 46 18.268 46 26C46 33.732 39.732 40 32 40Z" fill="white"/>
  <path d="M28 18C28 18 24 23 24 26C24 29 26 31 28 31C30 31 32 30 32 30C32 30 31 34 34 34C37 34 36 29 36 29C36 29 38 30 40 28C42 26 42 22 40 21C38 20 37 20 36 22C35 24 33 23 33 23C33 23 34 19 32 18C30 17 28 18 28 18Z" fill="white"/>
</svg>
